PathFileType	4	(X/Y/Z)	SUBJ24_2_walk_RCNL2025.trc
DataRate	CameraRate	NumFrames	NumMarkers	Units	OrigDataRate	OrigDataStartFrame	OrigNumFrames
100	100	12	25	mm	100	150	399
Frame#	Time	R_Shoulder			L_Shoulder			C7			J_Notch			R_Elbow			L_Elbow			R_Wrist			L_Wrist			R_Asis			L_Asis			Sacral			Thoracic			Sternum			R_Thigh_Lateral			R_Knee_Lateral			R_Shank_Lateral			R_Ankle_Lateral			R_Heel			R_Toe			L_Thigh_Lateral			L_Knee_Lateral			L_Shank_Lateral			L_Ankle_Lateral			L_Heel			L_Toe		
		X1	Y1	Z1	X2	Y2	Z2	X3	Y3	Z3	X4	Y4	Z4	X5	Y5	Z5	X6	Y6	Z6	X7	Y7	Z7	X8	Y8	Z8	X9	Y9	Z9	X10	Y10	Z10	X11	Y11	Z11	X12	Y12	Z12	X13	Y13	Z13	X14	Y14	Z14	X15	Y15	Z15	X16	Y16	Z16	X17	Y17	Z17	X18	Y18	Z18	X19	Y19	Z19	X20	Y20	Z20	X21	Y21	Z21	X22	Y22	Z22	X23	Y23	Z23	X24	Y24	Z24	X25	Y25	Z25
150	1.49000000	-1613.267944	1287.451050	291.709595	-1652.550293	1291.949951	-52.606403	-1718.500244	1350.917236	128.352768	-1580.604858	1265.551025	115.790421	-1582.609619	1011.023010	394.504303	-1750.211548	1008.137573	-118.388680	-1418.939331	841.697662	359.495026	-1754.925598	773.557312	-126.072701	-1603.317749	842.306213	290.771851	-1593.325562	855.440796	-36.045044	-1773.620239	889.210022	134.034424	-1777.845459	1083.653320	132.891541	-1502.694702	1048.718384	110.451469	-1740.787842	547.134827	316.017242	-1711.726440	404.237610	244.573822	-1818.028687	300.770325	289.071686	-1992.145752	143.245972	214.135040	-2037.664185	162.452454	155.682037	-1929.530762	32.211979	195.059982	-1542.242554	553.175476	-53.944885	-1478.628296	440.073273	4.515328	-1473.758057	283.809784	-43.014572	-1463.616333	58.212486	25.944126	-1508.907715	32.829647	83.514641	-1343.306152	40.508381	54.341301
151	1.50000000	-1599.950195	1289.409058	290.276337	-1639.760376	1293.433838	-53.663380	-1705.817261	1352.562988	127.219658	-1567.839233	1267.298584	114.513763	-1572.548096	1012.352417	393.392090	-1733.390625	1008.491882	-119.919029	-1412.245056	839.682495	359.594055	-1734.637817	773.964203	-127.593853	-1589.522583	842.651184	288.798981	-1581.290161	858.005127	-37.552528	-1760.682495	890.551514	133.745026	-1764.888916	1085.205688	132.485855	-1489.850098	1050.403809	109.125580	-1721.977905	545.334961	315.450409	-1689.591309	403.521606	245.746399	-1799.357178	304.383606	289.957947	-1977.287476	151.658066	214.373337	-2019.588989	174.169937	154.892761	-1924.445312	34.358795	195.212509	-1532.552124	554.414490	-55.663212	-1470.007080	440.411163	2.829190	-1468.737061	283.818787	-43.864479	-1463.103027	58.221996	25.959040	-1508.740967	33.110867	83.497116	-1343.128052	40.064354	54.180534
152	1.51000000	-1586.939453	1291.526123	289.029663	-1627.083008	1295.177002	-54.547192	-1693.305664	1354.360596	126.229774	-1555.239014	1269.204712	113.442108	-1562.584106	1013.852112	392.311157	-1716.471802	1009.149231	-121.510239	-1406.030212	837.619232	359.727173	-1713.554749	774.707489	-129.175503	-1576.003418	843.305237	286.882355	-1569.665039	860.450928	-39.036598	-1747.989136	892.133118	133.268967	-1752.144775	1086.959351	132.062744	-1477.255493	1052.224365	107.979340	-1702.642212	543.690308	315.033508	-1666.684204	403.176361	246.915482	-1779.535156	308.286041	290.800110	-1960.689453	160.086136	214.347351	-1999.799316	185.495377	153.864594	-1917.171265	37.575104	195.579880	-1524.171875	555.405823	-57.263103	-1462.898682	440.458313	1.118193	-1464.838379	283.689117	-44.696815	-1462.815796	58.247227	25.955885	-1508.650269	33.286354	83.497696	-1343.086182	39.888287	53.977516
153	1.52000000	-1574.274414	1293.741211	288.012909	-1614.500244	1297.120850	-55.263508	-1680.949585	1356.290771	125.375748	-1542.803589	1271.232910	112.580437	-1552.743042	1015.461792	391.272278	-1699.491699	1010.079102	-123.168526	-1400.242065	835.537781	359.902145	-1691.729919	775.782684	-130.799397	-1562.773804	844.296082	285.087219	-1558.337891	862.759216	-40.490688	-1735.541016	893.946655	132.607910	-1739.615967	1088.882690	131.572281	-1464.878296	1054.158081	107.034409	-1682.908813	542.372681	314.755310	-1643.157593	403.293488	248.051758	-1758.615845	312.373322	291.564606	-1942.419800	168.341568	214.061478	-1978.644897	196.061829	152.667923	-1907.065552	41.854969	196.207108	-1516.746460	556.257385	-58.726833	-1456.973999	440.343933	-0.559320	-1461.726074	283.489838	-45.544739	-1462.693848	58.276424	25.907223	-1508.618164	33.390141	83.490891	-1343.130615	39.862343	53.732449
154	1.53000000	-1561.963501	1295.999390	287.252991	-1601.992554	1299.215332	-55.823845	-1668.726318	1358.340576	124.652199	-1530.527344	1273.348755	111.919716	-1543.054321	1017.127869	390.283417	-1682.466675	1011.249146	-124.891472	-1394.835144	833.471069	360.131104	-1669.251404	777.189453	-132.438385	-1549.831055	845.648254	283.459625	-1547.176147	864.936157	-41.904373	-1723.326416	895.968384	131.796021	-1727.290283	1090.942505	130.978271	-1452.683350	1056.188965	106.300148	-1662.895142	541.564758	314.599030	-1619.150513	403.944458	249.130722	-1736.666626	316.529083	292.210663	-1922.568848	176.204102	213.528000	-1956.476074	205.491882	151.351242	-1893.570679	47.012154	197.095612	-1509.878174	557.075806	-60.053627	-1451.851318	440.180695	-2.144277	-1459.091064	283.269531	-46.427410	-1462.686768	58.305969	25.795797	-1508.629150	33.455246	83.456009	-1343.223145	39.909336	53.446400
155	1.54000000	-1549.989380	1298.255493	286.753937	-1589.543579	1301.422852	-56.242939	-1656.613037	1360.497681	124.054657	-1518.400513	1275.521851	111.441422	-1533.544434	1018.806885	389.351074	-1665.401855	1012.631775	-126.670647	-1389.771973	831.452667	360.426483	-1646.233459	778.936249	-134.061008	-1537.163574	847.372131	282.029968	-1536.080444	866.990601	-43.255829	-1711.322998	898.162659	130.885162	-1715.145752	1093.104858	130.258957	-1440.640869	1058.301514	105.775330	-1642.688843	541.415588	314.549377	-1594.783936	405.166260	250.133423	-1713.788696	320.641846	292.694031	-1901.229370	183.416077	212.774475	-1933.572144	213.443665	149.954163	-1876.335693	52.696350	198.200195	-1503.248169	557.948730	-61.257565	-1447.208130	440.041840	-3.586143	-1456.708130	283.052338	-47.337967	-1462.755371	58.336647	25.617760	-1508.673096	33.509628	83.377930	-1343.336792	39.984497	53.126133
156	1.55000000	-1538.315186	1300.476562	286.496155	-1577.141724	1303.718750	-56.537304	-1644.590698	1362.745972	123.577248	-1506.408447	1277.727539	111.122513	-1524.234375	1020.467163	388.480438	-1648.301636	1014.208069	-128.495682	-1385.022278	829.511749	360.795715	-1622.793884	781.039734	-135.637627	-1524.758545	849.456055	280.816040	-1525.014038	868.930176	-44.515823	-1699.502686	900.487305	129.930054	-1703.156860	1095.335815	129.404785	-1428.732178	1060.475098	105.447571	-1622.345581	541.991943	314.590637	-1570.163696	406.957123	251.045822	-1690.111694	324.610291	292.979675	-1878.476318	189.690109	211.854019	-1910.074097	219.659607	148.523529	-1855.317505	58.445263	199.438354	-1496.645874	558.940186	-62.360722	-1442.857422	439.957764	-4.848856	-1454.456421	282.846771	-48.243141	-1462.868652	58.369953	25.384134	-1508.744507	33.573997	83.248688	-1343.454712	40.063293	52.785343
157	1.56000000	-1526.892944	1302.640747	286.441254	-1564.785522	1306.090210	-56.724991	-1632.645020	1365.062744	123.211212	-1494.532593	1279.944824	110.938568	-1515.140869	1022.088806	387.674652	-1631.175781	1015.967896	-130.356262	-1380.561035	827.670502	361.239014	-1599.034790	783.519073	-137.143318	-1512.600586	851.863342	279.822540	-1513.992188	870.766541	-45.658154	-1687.836548	902.897461	128.978470	-1691.297119	1097.601196	128.419403	-1416.951172	1062.682739	105.292366	-1601.900635	543.252136	314.702637	-1545.387939	409.282257	251.856018	-1665.756470	328.327484	293.059601	-1854.370483	194.737564	210.847046	-1885.974854	223.991867	147.119003	-1830.793579	63.768448	200.714127	-1489.954712	560.080566	-63.380062	-1438.752441	439.926758	-5.909842	-1452.302856	282.659180	-49.091740	-1462.997803	58.404057	25.121126	-1508.837891	33.659664	83.073860	-1343.567871	40.130863	52.443253
158	1.57000000	-1515.670654	1304.732788	286.539154	-1552.484009	1308.533569	-56.825436	-1620.767212	1367.417603	122.944389	-1482.750000	1282.154541	110.865456	-1506.277832	1023.661438	386.934692	-1614.039307	1017.905823	-132.242371	-1376.366638	825.943970	361.751419	-1575.038086	786.389435	-138.558064	-1500.666260	854.534607	279.039368	-1503.052612	872.514221	-46.667194	-1676.297607	905.346680	128.068542	-1679.541626	1099.869995	127.324181	-1405.300293	1064.895386	105.275238	-1581.384399	545.061523	314.861938	-1520.555542	412.083038	252.553040	-1640.801758	331.663239	292.967590	-1828.983887	198.314178	209.845398	-1861.186157	226.391953	145.805389	-1803.256714	68.239044	201.938202	-1483.144287	561.358765	-64.317497	-1434.927490	439.931366	-6.755818	-1450.266479	282.501038	-49.827435	-1463.114258	58.431870	24.865973	-1508.942749	33.767731	82.875206	-1343.670288	40.177574	52.121532
159	1.58000000	-1504.599854	1306.740723	286.736023	-1540.254883	1311.048218	-56.859028	-1608.952637	1369.773071	122.761307	-1471.035767	1284.337280	110.880661	-1497.656616	1025.180054	386.260864	-1596.911133	1020.015686	-134.145157	-1372.418396	824.341278	362.325424	-1550.865295	789.659149	-139.865623	-1488.918213	857.391418	278.443634	-1492.231201	874.183167	-47.538147	-1664.861450	907.787231	127.231010	-1667.871826	1102.117798	126.156540	-1393.781494	1067.086792	105.357109	-1560.836304	547.240601	315.045563	-1495.769043	415.286621	253.130447	-1615.292603	334.470551	292.775787	-1802.414917	200.263184	208.927246	-1835.628418	226.877991	144.643372	-1773.246094	71.561516	203.033920	-1476.267700	562.722290	-65.152557	-1431.419678	439.953125	-7.380293	-1448.382202	282.388123	-50.402222	-1463.195923	58.446030	24.653818	-1509.043457	33.892548	82.681168	-1343.756592	40.199078	51.840111
160	1.59000000	-1493.639893	1308.651978	286.981781	-1528.120117	1313.630371	-56.847065	-1597.199097	1372.085693	122.643860	-1459.369995	1286.470093	110.963478	-1489.285522	1026.640625	385.653137	-1579.813721	1022.284729	-136.057663	-1368.694641	822.865997	362.952240	-1526.551453	793.330170	-141.052452	-1477.307129	860.345764	278.005951	-1481.547852	875.776245	-48.273796	-1653.506958	910.170532	126.492599	-1656.279053	1104.323242	124.959396	-1382.391357	1069.232544	105.499588	-1540.316650	549.620239	315.231567	-1471.134644	418.814148	253.591354	-1589.289673	336.620148	292.564514	-1774.771973	200.529968	208.143692	-1809.272705	225.503174	143.686005	-1741.211670	73.597954	203.941299	-1469.439087	564.091553	-65.844070	-1428.216675	439.979828	-7.783309	-1446.675537	282.335571	-50.786770	-1463.235962	58.447765	24.505335	-1509.124512	34.027546	82.515312	-1343.820923	40.195766	51.613762
161	1.60000000	-1482.760986	1310.451660	287.236267	-1516.102539	1316.266846	-56.811581	-1585.504761	1374.308716	122.572556	-1447.744751	1288.523071	111.094978	-1481.168335	1028.036255	385.110107	-1562.772339	1024.688354	-137.973541	-1365.170410	821.514740	363.622437	-1502.115234	797.399719	-142.109715	-1465.779663	863.312866	277.694305	-1470.996948	877.291809	-48.882195	-1642.216553	912.449463	125.878380	-1644.762939	1106.460083	123.771713	-1371.120483	1071.306641	105.668045	-1519.914429	552.075317	315.398804	-1446.760864	422.587311	253.948532	-1562.911377	338.050446	292.386169	-1746.149048	199.142883	207.522263	-1782.126709	222.336792	142.971771	-1707.471924	74.353966	204.631821	-1462.788452	565.381836	-66.344887	-1425.251099	440.005157	-7.971326	-1445.146729	282.351227	-50.973785	-1463.235229	58.447548	24.429314	-1509.173584	34.168705	82.392815	-1343.856201	40.170654	51.451504
